<svg width="294" height="331" viewBox="0 0 294 331" fill="none" xmlns="http://www.w3.org/2000/svg">
<path fill-rule="evenodd" clip-rule="evenodd" d="M45.1089 145.612C48.1445 145.612 50.6281 150.339 50.6281 156.221C50.6281 162.048 48.1445 166.83 45.1089 166.83C42.0733 166.83 39.5896 162.103 39.5896 156.221C39.5896 150.394 42.0733 145.612 45.1089 145.612Z" fill="#342F9E"/>
<path fill-rule="evenodd" clip-rule="evenodd" d="M80.2114 140.17L37.6579 143.084C37.6579 143.084 35.5606 137.312 26.7297 132.365C21.7624 129.616 20.7689 125.384 20.1618 122.196C19.6099 119.007 16.6847 120.382 15.8568 122.8C15.1393 124.834 13.4835 130.331 19.2235 135.718C19.3891 135.773 8.73694 134.728 5.92212 135.333C4.21115 135.718 2.22421 136.487 2.44498 139.291C2.66575 142.094 4.26634 142.479 5.81173 143.084C7.35713 143.688 3.10729 143.523 2.83133 146.657C2.61056 149.185 4.81827 150.34 6.14289 150.834C7.5779 151.384 5.25981 151.549 5.03904 153.693C4.81826 155.836 6.41885 157.101 7.5779 157.54C8.73694 157.98 6.25327 158.75 7.19155 161.443C8.12982 164.137 12.3797 164.027 15.5808 164.466C18.7268 164.961 27.2817 165.126 30.9796 164.302C33.684 163.697 36.2229 163.367 37.6027 159.409C37.7683 158.97 80.9841 161.498 80.9841 161.498C80.9841 161.498 87.4416 150.504 80.2114 140.17Z" fill="#A2A4F8"/>
<mask id="mask0" mask-type="alpha" maskUnits="userSpaceOnUse" x="2" y="120" width="82" height="45">
<path d="M80.2114 140.17L37.6579 143.084C37.6579 143.084 35.5606 137.312 26.7297 132.365C21.7624 129.616 20.7689 125.384 20.1618 122.196C19.6099 119.007 16.6847 120.382 15.8568 122.8C15.1393 124.834 13.4835 130.331 19.2235 135.718C19.3891 135.773 8.73694 134.728 5.92212 135.333C4.21115 135.718 2.22421 136.487 2.44498 139.291C2.66575 142.094 4.26634 142.479 5.81173 143.084C7.35713 143.688 3.10729 143.523 2.83133 146.657C2.61056 149.185 4.81827 150.34 6.14289 150.834C7.5779 151.384 5.25981 151.549 5.03904 153.693C4.81826 155.836 6.41885 157.101 7.5779 157.54C8.73694 157.98 6.25327 158.75 7.19155 161.443C8.12982 164.137 12.3797 164.027 15.5808 164.467C18.7268 164.961 27.2817 165.126 30.9796 164.302C33.684 163.697 36.2229 163.367 37.6027 159.409C37.7683 158.97 80.9841 161.498 80.9841 161.498C80.9841 161.498 87.4416 150.504 80.2114 140.17Z" fill="white"/>
</mask>
<g mask="url(#mask0)">
<path fill-rule="evenodd" clip-rule="evenodd" d="M27.3368 140.335C27.4472 139.346 27.116 138.356 26.5089 137.587C25.9018 136.817 24.9635 136.322 23.9701 136.267C16.9606 135.608 2.44494 134.234 2.44494 134.234L1.67224 142.479C1.67224 142.479 16.4639 143.853 23.4181 144.513C25.3499 144.678 27.0608 143.303 27.2264 141.38C27.2816 141.05 27.3368 140.665 27.3368 140.335Z" fill="#9598F1"/>
</g>
<mask id="mask1" mask-type="alpha" maskUnits="userSpaceOnUse" x="2" y="120" width="82" height="45">
<path d="M80.2114 140.17L37.6579 143.084C37.6579 143.084 35.5606 137.312 26.7297 132.365C21.7624 129.616 20.7689 125.384 20.1618 122.196C19.6099 119.007 16.6847 120.382 15.8568 122.8C15.1393 124.834 13.4835 130.331 19.2235 135.718C19.3891 135.773 8.73694 134.728 5.92212 135.333C4.21115 135.718 2.22421 136.487 2.44498 139.291C2.66575 142.094 4.26634 142.479 5.81173 143.084C7.35713 143.688 3.10729 143.523 2.83133 146.657C2.61056 149.185 4.81827 150.34 6.14289 150.834C7.5779 151.384 5.25981 151.549 5.03904 153.693C4.81826 155.836 6.41885 157.101 7.5779 157.54C8.73694 157.98 6.25327 158.75 7.19155 161.443C8.12982 164.137 12.3797 164.027 15.5808 164.467C18.7268 164.961 27.2817 165.126 30.9796 164.302C33.684 163.697 36.2229 163.367 37.6027 159.409C37.7683 158.97 80.9841 161.498 80.9841 161.498C80.9841 161.498 87.4416 150.504 80.2114 140.17Z" fill="white"/>
</mask>
<g mask="url(#mask1)">
<path fill-rule="evenodd" clip-rule="evenodd" d="M30.8691 148.91C31.0899 146.876 29.5445 145.063 27.5024 144.843C19.8306 144.128 2.88647 142.534 2.88647 142.534L2.11377 150.779C2.11377 150.779 19.3891 152.373 26.9504 153.088C28.8822 153.253 30.5932 151.879 30.7587 149.955C30.7587 149.625 30.8139 149.24 30.8691 148.91Z" fill="#9598F1"/>
</g>
<mask id="mask2" mask-type="alpha" maskUnits="userSpaceOnUse" x="2" y="120" width="82" height="45">
<path d="M80.2114 140.17L37.6579 143.084C37.6579 143.084 35.5606 137.312 26.7297 132.365C21.7624 129.616 20.7689 125.384 20.1618 122.196C19.6099 119.007 16.6847 120.382 15.8568 122.8C15.1393 124.834 13.4835 130.331 19.2235 135.718C19.3891 135.773 8.73694 134.728 5.92212 135.333C4.21115 135.718 2.22421 136.487 2.44498 139.291C2.66575 142.094 4.26634 142.479 5.81173 143.084C7.35713 143.688 3.10729 143.523 2.83133 146.657C2.61056 149.185 4.81827 150.34 6.14289 150.834C7.5779 151.384 5.25981 151.549 5.03904 153.693C4.81826 155.836 6.41885 157.101 7.5779 157.54C8.73694 157.98 6.25327 158.75 7.19155 161.443C8.12982 164.137 12.3797 164.027 15.5808 164.467C18.7268 164.961 27.2817 165.126 30.9796 164.302C33.684 163.697 36.2229 163.367 37.6027 159.409C37.7683 158.97 80.9841 161.498 80.9841 161.498C80.9841 161.498 87.4416 150.504 80.2114 140.17Z" fill="white"/>
</mask>
<g mask="url(#mask2)">
<path fill-rule="evenodd" clip-rule="evenodd" d="M27.2816 155.836C27.392 154.847 27.0608 153.857 26.4537 153.088C25.7914 152.318 24.9083 151.824 23.9149 151.769C17.4573 151.219 4.98379 150.175 4.98379 150.175L4.10071 158.42C4.10071 158.42 17.071 159.519 23.4181 160.069C25.3499 160.234 27.0056 158.86 27.2264 156.936C27.2264 156.551 27.2816 156.166 27.2816 155.836Z" fill="#9598F1"/>
</g>
<mask id="mask3" mask-type="alpha" maskUnits="userSpaceOnUse" x="2" y="120" width="82" height="45">
<path d="M80.2114 140.17L37.6579 143.084C37.6579 143.084 35.5606 137.312 26.7297 132.365C21.7624 129.616 20.7689 125.384 20.1618 122.196C19.6099 119.007 16.6847 120.382 15.8568 122.8C15.1393 124.834 13.4835 130.331 19.2235 135.718C19.3891 135.773 8.73694 134.728 5.92212 135.333C4.21115 135.718 2.22421 136.487 2.44498 139.291C2.66575 142.094 4.26634 142.479 5.81173 143.084C7.35713 143.688 3.10729 143.523 2.83133 146.657C2.61056 149.185 4.81827 150.34 6.14289 150.834C7.5779 151.384 5.25981 151.549 5.03904 153.693C4.81826 155.836 6.41885 157.101 7.5779 157.54C8.73694 157.98 6.25327 158.75 7.19155 161.443C8.12982 164.137 12.3797 164.027 15.5808 164.467C18.7268 164.961 27.2817 165.126 30.9796 164.302C33.684 163.697 36.2229 163.367 37.6027 159.409C37.7683 158.97 80.9841 161.498 80.9841 161.498C80.9841 161.498 87.4416 150.504 80.2114 140.17Z" fill="white"/>
</mask>
<g mask="url(#mask3)">
<path fill-rule="evenodd" clip-rule="evenodd" d="M25.4051 162.928C25.5155 161.993 25.2395 161.004 24.5772 160.289C23.9701 159.519 23.087 159.08 22.0935 159.025C16.8502 158.585 7.90903 157.815 7.90903 157.815L7.19153 164.741C7.19153 164.741 16.5743 165.511 21.7072 165.951C23.6389 166.116 25.2395 164.796 25.4051 162.928Z" fill="#9598F1"/>
</g>
<path fill-rule="evenodd" clip-rule="evenodd" d="M206.437 97.1295C206.547 95.7553 208.976 87.0703 208.313 80.8038C207.706 74.5374 204.45 72.7784 200.807 70.1948C197.164 67.6113 195.343 65.8523 197.22 51.2856C194.239 50.0763 194.239 46.998 194.239 46.998C194.239 46.998 198.103 43.535 200.697 38.9726C203.291 34.4102 207.375 18.7441 208.534 16.9851C209.693 15.2261 228.459 -1.48445 245.679 18.6891C262.899 38.8626 241.319 51.7253 240.38 83.3324C239.442 114.884 205.664 105.87 206.437 97.1295Z" fill="#A2A4F8"/>
<path fill-rule="evenodd" clip-rule="evenodd" d="M203.181 3.02311C200.973 5.27683 199.151 20.1734 218.966 22.592C238.725 24.9556 240.491 24.0761 241.043 42.9854C241.153 46.6133 242.257 42.4357 246.672 44.3596C252.744 48.2074 243.195 57.717 239.277 59.8608C235.358 62.0046 241.208 68.271 244.685 68.2161C244.685 68.2161 244.52 64.5332 248.218 61.235C251.916 57.9919 262.237 47.163 262.292 33.8606C262.292 25.0656 257.6 24.0212 257.6 24.0212C257.6 24.0212 258.76 15.1162 250.812 10.3889C242.864 5.66161 239.663 0.879324 217.972 4.28739C210.521 6.81595 205.719 0.329636 203.181 3.02311Z" fill="#443AC6"/>
<path fill-rule="evenodd" clip-rule="evenodd" d="M194.184 183.595C194.184 183.595 246.562 121.151 243.195 91.7976C218.138 104.111 200.642 96.6898 200.642 96.6898C200.642 96.6898 184.525 108.783 194.184 183.595Z" fill="#F1B7C1"/>
<path fill-rule="evenodd" clip-rule="evenodd" d="M208.093 88.1697C208.093 88.1697 202.849 89.489 199.814 96.525C197.882 100.977 196.999 104.55 196.668 109.003C196.613 109.608 197.275 109.937 197.661 109.443C200.366 105.76 205.775 98.7237 208.148 99.2184C211.294 99.933 216.206 109.663 217.807 112.466C219.297 115.159 240.987 101.087 243.306 91.7427C243.361 86.3008 240.38 83.7722 240.38 83.7722C240.38 83.7722 231.991 96.6899 219.683 97.3495C211.846 98.0091 207.706 92.7321 208.093 88.1697Z" fill="#F4C7CE"/>
<path fill-rule="evenodd" clip-rule="evenodd" d="M154.556 267.478C154.556 267.478 156.929 327.999 157.371 329.263C157.812 330.527 263.782 329.263 263.782 329.263C263.782 329.263 268.363 280.286 261.574 262.421L154.556 267.478Z" fill="#DDD3EB"/>
<path fill-rule="evenodd" clip-rule="evenodd" d="M204.229 106.584C204.229 106.584 191.811 139.73 189.327 147.646C186.843 155.561 194.184 177.659 194.184 177.659C194.184 177.659 214.219 120.381 207.486 107.354C207.486 107.354 211.183 107.079 212.508 104.66C213.833 102.187 209.583 98.5588 208.093 98.5588C204.671 98.5588 202.242 102.901 202.96 104.276C203.788 105.815 204.229 106.584 204.229 106.584Z" fill="#332C9C"/>
<path fill-rule="evenodd" clip-rule="evenodd" d="M193.246 75.9665C198.986 76.2414 202.849 87.565 199.593 91.8525C191.59 88.7193 182.98 89.5988 177.902 93.1168C177.902 93.1718 174.425 75.0321 193.246 75.9665Z" fill="#7F7FFE"/>
<path fill-rule="evenodd" clip-rule="evenodd" d="M46.7095 141.16C45.8816 145.667 49.5243 147.536 42.4045 164.082C38.9273 172.217 96.3276 167.16 113.327 158.31C130.326 149.46 113.327 129.177 113.327 129.177C92.0778 134.399 72.3189 141.325 46.7095 141.16Z" fill="#4239C2"/>
<mask id="mask4" mask-type="alpha" maskUnits="userSpaceOnUse" x="145" y="77" width="143" height="198">
<path d="M194.184 177.714C194.736 183.486 196.447 180.957 214.44 151.274C232.433 121.591 242.312 98.0641 243.195 90.8632C251.253 94.7659 281.057 108.893 286.963 118.732C292.869 128.572 252.192 267.313 252.192 267.313C252.192 267.313 185.133 281.55 150.306 270.391C147.16 269.402 145.118 266.433 145.173 263.19C145.891 242.357 152.569 171.722 154.004 150.889C154.39 145.942 151.907 141.16 147.712 138.521C142.524 135.333 152.459 97.5144 160.572 88.2247C168.685 78.9349 173.101 76.1865 183.256 78.3852C193.411 80.584 207.982 88.1697 207.982 88.1697C207.982 88.1697 186.568 95.2057 194.184 177.714Z" fill="white"/>
</mask>
<g mask="url(#mask4)">
<path fill-rule="evenodd" clip-rule="evenodd" d="M207.265 355.703L40.4176 164.576L228.183 2.03369L395.03 193.16L207.265 355.703Z" fill="url(#paint0_linear)"/>
</g>
<path fill-rule="evenodd" clip-rule="evenodd" d="M86.0065 88.7193C86.0065 88.7193 87.2208 77.1209 99.1424 76.4613C111.064 75.8017 194.239 75.9666 194.239 75.9666C182.318 77.2858 181.49 82.178 180.441 88.9392C179.282 96.4699 166.919 161.663 162.89 179.967C161.069 188.323 154.169 202.67 144.731 195.798C136.121 189.477 69.3384 184.86 69.3384 184.86L86.0065 88.7193Z" fill="#D6D6FF"/>
<mask id="mask5" mask-type="alpha" maskUnits="userSpaceOnUse" x="69" y="75" width="126" height="123">
<path d="M86.0065 88.7193C86.0065 88.7193 87.2208 77.1209 99.1424 76.4613C111.064 75.8017 194.239 75.9666 194.239 75.9666C182.318 77.2858 181.49 82.178 180.441 88.9392C179.282 96.4699 166.919 161.663 162.89 179.967C161.069 188.323 154.169 202.67 144.731 195.799C136.121 189.477 69.3384 184.86 69.3384 184.86L86.0065 88.7193Z" fill="white"/>
</mask>
<g mask="url(#mask5)">
<path fill-rule="evenodd" clip-rule="evenodd" d="M75.0232 113.565L175.529 120.656C175.529 120.656 167.029 201.35 154.721 204.209C142.413 207.067 64.7021 190.796 64.7021 190.796L75.0232 113.565Z" fill="url(#paint1_linear)"/>
</g>
<path fill-rule="evenodd" clip-rule="evenodd" d="M102.564 100.208C99.9703 100.208 98.5353 100.153 98.5353 100.153L95.6653 114.829C95.6653 114.829 95.1685 117.138 97.7074 117.413C100.246 117.688 120.778 117.633 120.778 117.633C121.661 113.785 123.703 103.121 123.703 103.121C123.979 101.582 123.427 100.428 120.171 100.318C120.171 100.318 122.986 92.8969 117.963 90.5333C112.941 88.1696 108.194 90.7531 108.194 90.7531C104.496 92.677 102.84 95.9202 102.564 100.208Z" fill="#A2A4F8"/>
<path fill-rule="evenodd" clip-rule="evenodd" d="M145.118 180.902C149.975 180.847 138.716 196.953 150.748 197.667H130.933C109.298 211.904 118.184 181.342 145.118 180.902Z" fill="#A3A2FE"/>
<path fill-rule="evenodd" clip-rule="evenodd" d="M107.311 98.7786C107.311 98.7786 106.925 92.8969 111.892 92.787C116.859 92.6221 116.694 94.3261 116.638 95.5904C116.583 96.8547 116.087 99.1084 116.087 99.1084L107.311 98.7786Z" fill="#D6D6FF"/>
<path fill-rule="evenodd" clip-rule="evenodd" d="M160.682 90.1487H134.576C133.307 90.1487 132.258 91.0282 131.982 92.2375C131.651 93.6667 131.32 95.3707 131.32 95.3707H157.426C158.695 95.3707 159.744 94.4912 160.02 93.2819C160.351 91.8527 160.682 90.1487 160.682 90.1487Z" fill="#C2C2FF"/>
<path fill-rule="evenodd" clip-rule="evenodd" d="M37.9339 193.105C37.9339 193.105 39.1481 181.507 51.0697 180.847C62.9913 180.188 145.173 180.902 145.173 180.902C133.251 182.221 133.472 186.619 132.424 193.325C131.265 200.856 129.222 266.214 118.184 268.357C112.609 269.457 26.2882 263.96 26.2882 263.96L37.9339 193.105Z" fill="#D6D6FF"/>
<path fill-rule="evenodd" clip-rule="evenodd" d="M156.598 112.081H130.492C129.222 112.081 128.174 112.961 127.898 114.17C127.622 115.599 127.235 117.303 127.235 117.303H153.342C154.611 117.303 155.66 116.424 155.936 115.214C156.267 113.785 156.598 112.081 156.598 112.081Z" fill="#C2C2FF"/>
<path fill-rule="evenodd" clip-rule="evenodd" d="M137.446 122.305H97.5971C96.3276 122.305 95.279 123.185 95.003 124.394C94.6719 125.823 94.3407 127.527 94.3407 127.527H134.19C135.459 127.527 136.508 126.648 136.784 125.438C137.115 124.009 137.446 122.305 137.446 122.305Z" fill="#C2C2FF"/>
<path fill-rule="evenodd" clip-rule="evenodd" d="M113.768 133.849H95.2238C93.9543 133.849 92.9057 134.728 92.6297 135.937C92.3538 137.367 91.9674 139.071 91.9674 139.071H110.512C111.782 139.071 112.83 138.191 113.106 136.982C113.382 135.498 113.768 133.849 113.768 133.849Z" fill="#C2C2FF"/>
<path fill-rule="evenodd" clip-rule="evenodd" d="M111.782 146.107H93.2368C91.9674 146.107 90.9187 146.986 90.6428 148.196C90.3116 149.625 89.9805 151.329 89.9805 151.329H108.525C109.795 151.329 110.843 150.449 111.119 149.24C111.395 147.756 111.782 146.107 111.782 146.107Z" fill="#C2C2FF"/>
<path fill-rule="evenodd" clip-rule="evenodd" d="M76.679 195.688H54.602C53.1118 195.688 51.8424 196.568 51.5112 197.777C51.1249 199.207 50.7385 200.911 50.7385 200.911H72.8156C74.3058 200.911 75.5752 200.031 75.9063 198.822C76.2927 197.393 76.679 195.688 76.679 195.688Z" fill="#C2C2FF"/>
<path fill-rule="evenodd" clip-rule="evenodd" d="M109.519 158.2H90.9739C89.7045 158.2 88.6558 159.079 88.3798 160.289C88.0487 161.718 87.7175 163.422 87.7175 163.422H106.262C107.532 163.422 108.58 162.542 108.856 161.333C109.187 159.904 109.519 158.2 109.519 158.2Z" fill="#C2C2FF"/>
<path fill-rule="evenodd" clip-rule="evenodd" d="M74.4713 207.837H52.3942C50.904 207.837 49.6346 208.716 49.3035 209.926C48.9171 211.355 48.5308 213.059 48.5308 213.059H70.6078C72.098 213.059 73.3674 212.179 73.6986 210.97C74.0298 209.486 74.4713 207.837 74.4713 207.837Z" fill="#C2C2FF"/>
<path fill-rule="evenodd" clip-rule="evenodd" d="M107.09 235.926C107.09 235.926 58.7966 234.551 47.3717 234.222C45.9919 234.167 44.7225 235.046 44.3913 236.256C44.0602 237.52 43.6738 238.949 43.6738 238.949C43.6738 238.949 91.9674 240.323 103.392 240.653C104.772 240.708 106.041 239.828 106.373 238.619C106.704 237.355 107.09 235.926 107.09 235.926Z" fill="#C2C2FF"/>
<path fill-rule="evenodd" clip-rule="evenodd" d="M140.647 101.087H132.534C131.265 101.087 130.216 101.967 129.94 103.176C129.664 104.605 129.278 106.309 129.278 106.309H137.391C138.66 106.309 139.709 105.43 139.985 104.221C140.316 102.736 140.647 101.087 140.647 101.087Z" fill="#C2C2FF"/>
<path fill-rule="evenodd" clip-rule="evenodd" d="M81.6464 221.744H48.7516C47.4822 221.744 46.4335 222.623 46.1576 223.832C45.8264 225.262 45.4952 226.966 45.4952 226.966H78.39C79.6595 226.966 80.7081 226.086 80.9841 224.877C81.3152 223.393 81.6464 221.744 81.6464 221.744Z" fill="#C2C2FF"/>
<path fill-rule="evenodd" clip-rule="evenodd" d="M77.9485 249.558C77.9485 249.558 52.6702 248.514 45.0537 248.239C43.7842 248.184 42.6804 249.008 42.4044 250.218C42.0181 251.647 41.6317 253.296 41.6317 253.296C41.6317 253.296 66.9099 254.34 74.5265 254.615C75.7959 254.67 76.8998 253.846 77.1758 252.636C77.5069 251.207 77.9485 249.558 77.9485 249.558Z" fill="#C2C2FF"/>
<path fill-rule="evenodd" clip-rule="evenodd" d="M158.806 101.087H148.595C147.326 101.087 146.277 101.967 146.001 103.176C145.67 104.605 145.339 106.309 145.339 106.309H155.549C156.819 106.309 157.867 105.43 158.143 104.221C158.474 102.736 158.806 101.087 158.806 101.087Z" fill="#C2C2FF"/>
<path fill-rule="evenodd" clip-rule="evenodd" d="M108.36 221.744H92.8505C90.974 221.744 89.3182 222.623 88.9318 223.832C88.4903 225.262 87.9384 226.966 87.9384 226.966H103.447C105.324 226.966 106.98 226.086 107.366 224.877C107.808 223.393 108.36 221.744 108.36 221.744Z" fill="#C2C2FF"/>
<path fill-rule="evenodd" clip-rule="evenodd" d="M103.944 250.602C103.944 250.602 93.3472 250.163 87.7728 249.943C85.7858 249.888 84.0197 250.657 83.5781 251.867C83.0262 253.296 82.4191 254.945 82.4191 254.945C82.4191 254.945 93.0161 255.385 98.5905 255.605C100.577 255.659 102.344 254.89 102.785 253.681C103.337 252.251 103.944 250.602 103.944 250.602Z" fill="#C2C2FF"/>
<path fill-rule="evenodd" clip-rule="evenodd" d="M153.342 122.855H143.131C141.861 122.855 140.813 123.734 140.537 124.944C140.261 126.373 139.875 128.077 139.875 128.077H150.085C151.355 128.077 152.403 127.198 152.679 125.988C152.955 124.559 153.342 122.855 153.342 122.855Z" fill="#C2C2FF"/>
<path fill-rule="evenodd" clip-rule="evenodd" d="M150.968 134.398H120.999C119.729 134.398 118.681 135.278 118.405 136.487C118.073 137.916 117.742 139.62 117.742 139.62H147.712C148.981 139.62 150.03 138.741 150.306 137.532C150.582 136.047 150.968 134.398 150.968 134.398Z" fill="#C2C2FF"/>
<path fill-rule="evenodd" clip-rule="evenodd" d="M148.981 146.656H119.012C117.742 146.656 116.694 147.536 116.418 148.745C116.087 150.175 115.755 151.879 115.755 151.879H145.725C146.994 151.879 148.043 150.999 148.319 149.79C148.595 148.306 148.981 146.656 148.981 146.656Z" fill="#C2C2FF"/>
<path fill-rule="evenodd" clip-rule="evenodd" d="M113.879 196.238H83.9093C82.6399 196.238 81.5912 197.118 81.3153 198.327C80.9841 199.756 80.653 201.46 80.653 201.46H110.623C111.892 201.46 112.941 200.581 113.217 199.371C113.548 197.942 113.879 196.238 113.879 196.238Z" fill="#C2C2FF"/>
<path fill-rule="evenodd" clip-rule="evenodd" d="M146.719 158.75H116.749C115.479 158.75 114.431 159.629 114.155 160.838C113.824 162.268 113.493 163.972 113.493 163.972H143.462C144.732 163.972 145.78 163.092 146.056 161.883C146.387 160.454 146.719 158.75 146.719 158.75Z" fill="#C2C2FF"/>
<path fill-rule="evenodd" clip-rule="evenodd" d="M111.671 208.386H81.7015C80.4321 208.386 79.3835 209.266 79.1075 210.475C78.7763 211.904 78.4452 213.608 78.4452 213.608H108.415C109.684 213.608 110.733 212.729 111.009 211.519C111.34 210.09 111.671 208.386 111.671 208.386Z" fill="#C2C2FF"/>
<mask id="mask6" mask-type="alpha" maskUnits="userSpaceOnUse" x="154" y="262" width="111" height="68">
<path d="M154.556 267.478C154.556 267.478 156.929 327.999 157.371 329.263C157.812 330.527 263.782 329.263 263.782 329.263C263.782 329.263 266.928 276.933 261.574 262.421C194.239 286.607 154.556 267.478 154.556 267.478Z" fill="white"/>
</mask>
<g mask="url(#mask6)">
<path fill-rule="evenodd" clip-rule="evenodd" d="M217.255 261.541C217.255 261.541 250.867 276.548 248.494 305.516C246.12 334.485 245.679 337.508 245.679 337.508L268.639 333.166C268.639 333.166 272.558 272.92 262.513 259.453L217.255 261.541Z" fill="#C3B3DD"/>
</g>
<mask id="mask7" mask-type="alpha" maskUnits="userSpaceOnUse" x="154" y="262" width="111" height="68">
<path d="M154.556 267.478C154.556 267.478 156.929 327.999 157.371 329.263C157.812 330.527 263.782 329.263 263.782 329.263C263.782 329.263 266.928 276.933 261.574 262.421C194.239 286.607 154.556 267.478 154.556 267.478Z" fill="white"/>
</mask>
<g mask="url(#mask7)">
<path fill-rule="evenodd" clip-rule="evenodd" d="M182.704 333.331C182.704 333.331 181.214 290.675 184.636 290.07C188.113 289.466 191.093 333.331 191.093 333.331H182.704Z" fill="#C3B3DD"/>
</g>
<path fill-rule="evenodd" clip-rule="evenodd" d="M253.295 276.108L246.727 291.389C246.727 291.389 243.03 278.802 230.17 274.679L236.075 265.719L253.295 276.108Z" fill="#A2A4F8"/>
<path fill-rule="evenodd" clip-rule="evenodd" d="M264.665 149.735C264.665 149.735 263.837 188.762 259.753 205.803C255.669 222.843 227.189 266.268 227.189 266.268C227.189 266.268 246.231 274.679 252.302 279.956C254.951 281.385 287.736 234.112 291.158 218.226C294.579 202.395 291.654 143.798 291.158 128.187C291.213 123.295 287.791 118.512 283.486 114.39C276.311 107.629 264.444 112.796 264.5 122.745L264.665 149.735Z" fill="url(#paint2_linear)"/>
<defs>
<linearGradient id="paint0_linear" x1="231.085" y1="194.176" x2="111.906" y2="56.8974" gradientUnits="userSpaceOnUse">
<stop stop-color="#443AC6"/>
<stop offset="0.89" stop-color="#332C9C"/>
<stop offset="1" stop-color="#332C9C"/>
</linearGradient>
<linearGradient id="paint1_linear" x1="118.381" y1="202.424" x2="120.024" y2="136.876" gradientUnits="userSpaceOnUse">
<stop stop-color="#A2A4F8"/>
<stop offset="1" stop-color="#D6D6FF"/>
</linearGradient>
<linearGradient id="paint2_linear" x1="227.182" y1="195.689" x2="292.757" y2="195.689" gradientUnits="userSpaceOnUse">
<stop stop-color="#4A31CF"/>
<stop offset="1" stop-color="#3B24AD"/>
</linearGradient>
</defs>
</svg>
